<?xml version="1.0" encoding="UTF-8" standalone="no"?>
<svg
   xmlns:dc="http://purl.org/dc/elements/1.1/"
   xmlns:cc="http://creativecommons.org/ns#"
   xmlns:rdf="http://www.w3.org/1999/02/22-rdf-syntax-ns#"
   xmlns:svg="http://www.w3.org/2000/svg"
   xmlns="http://www.w3.org/2000/svg"
   xmlns:sodipodi="http://sodipodi.sourceforge.net/DTD/sodipodi-0.dtd"
   xmlns:inkscape="http://www.inkscape.org/namespaces/inkscape"
   width="192"
   height="192"
   viewBox="0 0 192 192"
   id="svg2"
   version="1.1"
   inkscape:version="0.48.5 r10040"
   sodipodi:docname="ic_launcher.svg">
  <sodipodi:namedview
     pagecolor="#ffffff"
     bordercolor="#666666"
     borderopacity="1"
     objecttolerance="10"
     gridtolerance="10"
     guidetolerance="10"
     inkscape:pageopacity="0"
     inkscape:pageshadow="2"
     inkscape:window-width="2558"
     inkscape:window-height="1419"
     id="namedview47"
     showgrid="false"
     inkscape:zoom="3.6875"
     inkscape:cx="72.546372"
     inkscape:cy="74.028919"
     inkscape:window-x="0"
     inkscape:window-y="19"
     inkscape:window-maximized="1"
     inkscape:current-layer="svg2" />
  <defs
     id="defs4">
    <filter
       id="filter5213"
       x="-0.18000001"
       y="-0.13"
       width="1.35"
       height="1.38"
       color-interpolation-filters="sRGB">
      <feFlood
         flood-opacity="0.490196"
         flood-color="rgb(0,0,0)"
         result="flood"
         id="feFlood5215" />
      <feComposite
         in="flood"
         in2="SourceGraphic"
         operator="in"
         result="composite1"
         id="feComposite5217" />
      <feGaussianBlur
         in="composite1"
         stdDeviation="3"
         result="blur"
         id="feGaussianBlur5219" />
      <feOffset
         dx="0"
         dy="3"
         result="offset"
         id="feOffset5221" />
      <feComposite
         in="SourceGraphic"
         in2="offset"
         operator="over"
         result="composite2"
         id="feComposite5223" />
    </filter>
    <filter
       id="filter5225"
       width="1.38"
       height="1.35"
       y="-0.17"
       x="-0.17"
       color-interpolation-filters="sRGB">
      <feFlood
         flood-opacity="0.490196"
         flood-color="rgb(0,0,0)"
         result="flood"
         id="feFlood5227" />
      <feComposite
         in="flood"
         in2="SourceGraphic"
         operator="in"
         result="composite1"
         id="feComposite5229" />
      <feGaussianBlur
         in="composite1"
         stdDeviation="3"
         result="blur"
         id="feGaussianBlur5231" />
      <feOffset
         dx="0"
         dy="3"
         result="offset"
         id="feOffset5233" />
      <feComposite
         in="SourceGraphic"
         in2="offset"
         operator="over"
         result="composite2"
         id="feComposite5235" />
    </filter>
    <filter
       id="filter5611"
       height="1.24"
       color-interpolation-filters="sRGB">
      <feFlood
         flood-opacity="0.588235"
         flood-color="rgb(0,0,0)"
         result="flood"
         id="feFlood5613" />
      <feComposite
         in="flood"
         in2="SourceGraphic"
         operator="in"
         result="composite1"
         id="feComposite5615" />
      <feGaussianBlur
         in="composite1"
         stdDeviation="4.5"
         result="blur"
         id="feGaussianBlur5617" />
      <feOffset
         dx="0"
         dy="3.5"
         result="offset"
         id="feOffset5619" />
      <feComposite
         in="SourceGraphic"
         in2="offset"
         operator="over"
         result="composite2"
         id="feComposite5621" />
    </filter>
    <filter
       id="filter4535"
       color-interpolation-filters="sRGB">
      <feFlood
         id="feFlood4537"
         result="flood"
         flood-color="rgb(0,0,0)"
         flood-opacity="0.470588" />
      <feComposite
         id="feComposite4539"
         result="composite1"
         operator="in"
         in2="SourceGraphic"
         in="flood" />
      <feGaussianBlur
         id="feGaussianBlur4541"
         result="blur"
         stdDeviation="3.5"
         in="composite1" />
      <feOffset
         id="feOffset4543"
         result="offset"
         dy="2.5"
         dx="0" />
      <feComposite
         id="feComposite4545"
         result="composite2"
         operator="over"
         in2="offset"
         in="SourceGraphic" />
    </filter>
    <filter
       color-interpolation-filters="sRGB"
       height="1.24"
       id="filter5611-7">
      <feFlood
         id="feFlood5613-8"
         result="flood"
         flood-color="rgb(0,0,0)"
         flood-opacity="0.588235" />
      <feComposite
         id="feComposite5615-1"
         result="composite1"
         operator="in"
         in2="SourceGraphic"
         in="flood" />
      <feGaussianBlur
         id="feGaussianBlur5617-3"
         result="blur"
         stdDeviation="4.5"
         in="composite1" />
      <feOffset
         id="feOffset5619-6"
         result="offset"
         dy="3.5"
         dx="0" />
      <feComposite
         id="feComposite5621-3"
         result="composite2"
         operator="over"
         in2="offset"
         in="SourceGraphic" />
    </filter>
  </defs>
  <metadata
     id="metadata7">
    <rdf:RDF>
      <cc:Work
         rdf:about="">
        <dc:format>image/svg+xml</dc:format>
        <dc:type
           rdf:resource="http://purl.org/dc/dcmitype/StillImage" />
        <dc:title />
      </cc:Work>
    </rdf:RDF>
  </metadata>
  <g
     style="filter:url(#filter4535)"
     id="g4474"
     transform="matrix(0.43316044,0,0,0.43316044,-14.098307,-11.048233)">
    <rect
       style="fill:#79b149;fill-opacity:1;stroke:none"
       id="rect5259-0-0-1"
       width="88.778572"
       height="56.892868"
       x="167.50708"
       y="213.82246" />
    <path
       style="fill:#c8c8c8;fill-opacity:1;fill-rule:evenodd;stroke:none"
       d="m 100.47841,72.658964 c -14.074422,0 -25.40509,11.373 -25.40509,25.5 l 0,36.779306 359.2827,0 0,-36.779306 c 0,-14.127 -11.33067,-25.5 -25.40508,-25.5 l -308.47253,0 z"
       id="rect3338"
       inkscape:connector-curvature="0" />
    <circle
       style="fill:#ffffff;fill-opacity:1;stroke:#ffffff;stroke-width:0.82922643;stroke-opacity:1;filter:url(#filter5225)"
       id="path4140"
       cx="154.04826"
       cy="643.50293"
       r="16.752903"
       transform="matrix(0.85138023,0,0,0.85138023,26.529744,-443.54689)"
       sodipodi:cx="154.04826"
       sodipodi:cy="643.50293"
       sodipodi:rx="16.752903"
       sodipodi:ry="16.752903"
       d="m 170.80117,643.50293 c 0,9.25237 -7.50053,16.7529 -16.75291,16.7529 -9.25237,0 -16.7529,-7.50053 -16.7529,-16.7529 0,-9.25237 7.50053,-16.7529 16.7529,-16.7529 9.25238,0 16.75291,7.50053 16.75291,16.7529 z" />
    <circle
       style="fill:#ffffff;fill-opacity:1;stroke:#ffffff;stroke-width:0.82922643;stroke-opacity:1;filter:url(#filter5213)"
       id="path4140-3"
       cx="355.5737"
       cy="643.50293"
       r="16.752903"
       transform="matrix(0.85138023,0,0,0.85138023,53.803863,-445.54372)"
       sodipodi:cx="355.5737"
       sodipodi:cy="643.50293"
       sodipodi:rx="16.752903"
       sodipodi:ry="16.752903"
       d="m 372.3266,643.50293 c 0,9.25237 -7.50053,16.7529 -16.7529,16.7529 -9.25237,0 -16.7529,-7.50053 -16.7529,-16.7529 0,-9.25237 7.50053,-16.7529 16.7529,-16.7529 9.25237,0 16.7529,7.50053 16.7529,16.7529 z" />
    <path
       style="fill:#8bc34a;fill-opacity:1;fill-rule:evenodd;stroke:none"
       d="m 75.254268,134.04073 0,258.91638 c 0,14.04796 11.325303,25.35734 25.393042,25.35734 l 308.32646,0 c 14.06776,0 25.39306,-11.30938 25.39306,-25.35734 l 0,-258.91638 -359.112562,0 z"
       id="rect3338-6"
       inkscape:connector-curvature="0" />
    <rect
       style="fill:#689f38;fill-opacity:1;stroke:none"
       id="rect5259"
       width="92.207443"
       height="180.13148"
       x="75.234161"
       y="134.04073" />
    <rect
       style="fill:#4caf50;fill-opacity:1;stroke:none"
       id="rect5259-0"
       width="89.336426"
       height="147.80659"
       x="167.50708"
       y="270.50784" />
    <rect
       style="fill:#38823c;fill-opacity:1;stroke:none"
       id="rect5259-0-3"
       width="89.336426"
       height="80.126381"
       x="167.50708"
       y="134.04073" />
    <rect
       style="fill:#689f38;fill-opacity:1;stroke:none"
       id="rect5259-0-0-7"
       width="89.336426"
       height="173.05911"
       x="255.92883"
       y="245.25534" />
    <rect
       style="fill:#4caf50;fill-opacity:1;stroke:none"
       id="rect5259-0-2"
       width="89.606911"
       height="147.80659"
       x="344.91336"
       y="200.52528" />
    <rect
       style="fill:#3d8b3f;fill-opacity:1;stroke:none"
       id="rect5259-0-0"
       width="89.336426"
       height="114.5923"
       x="255.92883"
       y="134.04073" />
  </g>
  <circle
     r="94.449265"
     cy="349.87064"
     cx="363.14981"
     id="path5429"
     style="fill:#276528;fill-opacity:1;stroke:none;filter:url(#filter5611)"
     sodipodi:cx="363.14981"
     sodipodi:cy="349.87064"
     sodipodi:rx="94.449265"
     sodipodi:ry="94.449265"
     transform="matrix(0.41938045,0,0,0.41938045,-9.7377397,-6.3686079)" />
  <path
     inkscape:connector-curvature="0"
     style="fill:#ffffff;fill-opacity:1"
     id="path4"
     d="m 133.79175,133.91616 16.58516,16.58517 -20.1717,0 a 8.2925829,8.2925829 0 0 1 -8.29258,-8.29258 8.2925829,8.2925829 0 0 1 8.29258,-8.29259 m -6.21945,-9.80597 5.70116,5.65968 c -6.61333,0.31098 -11.9206,5.74262 -11.9206,12.43888 a 12.438874,12.438874 0 0 0 12.43889,12.43887 l 24.31799,0 4.1463,4.1463 2.63288,-2.63289 -34.68372,-34.68375 m 31.26303,12.50108 c -1.40974,-7.13163 -7.69136,-12.50108 -15.23761,-12.50108 -3.10972,0 -5.90847,0.89146 -8.29259,2.42558 l 3.00607,3.0268 c 1.57559,-0.82926 3.37922,-1.30608 5.28652,-1.30608 a 11.402302,11.402302 0 0 1 11.4023,11.4023 l 0,1.03657 3.10971,0 a 6.2194374,6.2194374 0 0 1 6.21944,6.21944 c 0,2.34265 -1.32681,4.37435 -3.23411,5.43164 l 3.00607,3.00607 c 2.63289,-1.88656 4.37433,-4.95482 4.37433,-8.43771 0,-5.4731 -4.24994,-9.90963 -9.64013,-10.30353 z" />
</svg>
